<svg width="50" height="51" viewBox="0 0 50 51" fill="none" xmlns="http://www.w3.org/2000/svg">
<g clip-path="url(#clip0_623_329)">
<path d="M35.8695 2.92012C32.5828 1.33086 28.8955 0.439453 25 0.439453C21.1045 0.439453 17.4172 1.33086 14.1305 2.92012L11.9565 25.4395L14.1305 47.9588C17.4172 49.548 21.1045 50.4395 25 50.4395C28.8955 50.4395 32.5828 49.548 35.8695 47.9588L38.0435 25.4395L35.8695 2.92012Z" fill="#D80027"/>
<path d="M24.9998 16.7439L27.158 23.3864H34.1431L28.4924 27.4922L30.6507 34.1351L24.9998 30.0295L19.3489 34.1351L21.5076 27.4922L15.8568 23.3864H22.8415L24.9998 16.7439Z" fill="#FFDA44"/>
<path d="M14.1305 2.92102C5.76816 6.96458 0 15.528 0 25.4395C0 35.351 5.76816 43.9144 14.1305 47.9579V2.92102Z" fill="#496E2D"/>
<path d="M35.8695 2.92102V47.9579C44.2318 43.9144 50 35.3509 50 25.4395C50 15.5281 44.2318 6.96458 35.8695 2.92102Z" fill="#FFDA44"/>
</g>
<defs>
<clipPath id="clip0_623_329">
<rect width="50" height="50" fill="white" transform="translate(0 0.439453)"/>
</clipPath>
</defs>
</svg>
