<svg width="307" height="79" viewBox="0 0 307 79" fill="none" xmlns="http://www.w3.org/2000/svg">
<path fill-rule="evenodd" clip-rule="evenodd" d="M110.513 9.2816V7.20316L104.767 9.33873H104.756V11.4716H104.767L110.513 13.6072V11.526L107.566 10.3997L110.513 9.27888V9.2816Z" fill="#F7DD43"/>
<path fill-rule="evenodd" clip-rule="evenodd" d="M143.792 13.5037V11.4253L146.736 10.3072L143.792 9.18905V7.1106L149.53 9.24618H149.543V11.3817H149.53L143.792 13.5064V13.5037ZM141.327 4.16977L137.954 15H139.956L143.33 4.16977H141.327Z" fill="#F7DD43"/>
<path fill-rule="evenodd" clip-rule="evenodd" d="M118.954 6.91747C119.526 7.54317 119.825 8.3702 119.79 9.21627V13.8302H117.787V9.64066C117.812 9.17274 117.662 8.7157 117.368 8.35116C117.091 8.02742 116.68 7.84787 116.253 7.86691C114.999 7.86691 114.37 8.73746 114.37 10.4758V13.8302H112.368V6.25639H114.37V6.93923C115.007 6.32168 115.869 5.99251 116.756 6.03059C117.583 5.99523 118.383 6.31896 118.954 6.91747Z" fill="#F7DD43"/>
<path fill-rule="evenodd" clip-rule="evenodd" d="M122.341 3V13.8302H124.344V3H122.341Z" fill="#F7DD43"/>
<path fill-rule="evenodd" clip-rule="evenodd" d="M135.666 13.8302H133.996L132.358 9.36862L130.704 13.8302H129.034L126.226 6.2428H128.367L129.945 10.7806L131.572 6.2428H133.136L134.763 10.7942L136.341 6.2428H138.482L135.672 13.8302H135.666Z" fill="#F7DD43"/>
<path d="M159.08 17.9981C157.153 17.9981 155.129 17.6331 153.543 16.754V1.24411C155.105 0.389878 157.128 2.85548e-05 159.08 2.85548e-05C161.031 2.85548e-05 163.007 0.365035 164.566 1.24411V7.19505H160.639V3.14558C160.176 2.95066 159.615 2.87804 159.055 2.87804C158.495 2.87804 157.981 2.95066 157.493 3.14558V14.8525C157.956 15.0475 158.493 15.1201 159.055 15.1201C159.617 15.1201 160.152 15.0475 160.639 14.8525V10.805H164.566V16.7559C163.03 17.6101 161.006 17.9752 159.08 18V17.9981Z" fill="#F7DD43"/>
<path d="M171.931 17.9981C169.858 17.9981 167.859 17.5585 166.273 16.6565V1.3167C167.834 0.439536 169.835 0 171.931 0C174.028 0 175.979 0.414693 177.54 1.3167V16.6565C176.004 17.5585 173.98 17.9732 171.931 17.9981ZM173.615 3.19524C173.152 3.00031 172.591 2.90285 171.908 2.90285C171.226 2.90285 170.689 3.00031 170.225 3.19524V14.7799C170.687 14.9997 171.249 15.0971 171.908 15.0971C172.568 15.0971 173.128 14.9997 173.615 14.7799V3.19524Z" fill="#F7DD43"/>
<path d="M184.393 11.4127H183.344V17.7783H179.369V0.219779H184.393C186.784 0.219779 188.588 0.707092 190.002 1.70656V9.92589C188.613 10.9024 186.782 11.4127 184.393 11.4127ZM186.052 3.24303C185.687 2.97548 185.198 2.85318 184.368 2.85318H183.294V8.77927H184.368C185.173 8.77927 185.66 8.65697 186.052 8.41427V3.24303Z" fill="#F7DD43"/>
<path d="M198.317 17.7783V11.4127H195.391V17.7783H191.441V1.29185C192.88 0.437625 194.904 0 196.855 0C198.806 0 200.805 0.439537 202.244 1.29185V17.7783H198.317ZM198.317 3.04809C197.902 2.85316 197.39 2.7557 196.853 2.7557C196.316 2.7557 195.804 2.85316 195.389 3.04809V8.63211H198.315V3.04809H198.317Z" fill="#F7DD43"/>
<path d="M76.7129 47.9248H81.0928C81.0049 49.3604 80.6094 50.6348 79.9062 51.748C79.2129 52.8613 78.2412 53.7305 76.9912 54.3555C75.751 54.9805 74.2568 55.293 72.5088 55.293C71.1416 55.293 69.916 55.0586 68.832 54.5898C67.748 54.1113 66.8203 53.4277 66.0488 52.5391C65.2871 51.6504 64.7061 50.5762 64.3057 49.3164C63.9053 48.0566 63.7051 46.6455 63.7051 45.083V43.6035C63.7051 42.041 63.9102 40.6299 64.3203 39.3701C64.7402 38.1006 65.3359 37.0215 66.1074 36.1328C66.8887 35.2441 67.8213 34.5605 68.9053 34.082C69.9893 33.6035 71.2002 33.3643 72.5381 33.3643C74.3154 33.3643 75.8145 33.6865 77.0352 34.3311C78.2656 34.9756 79.2178 35.8643 79.8916 36.9971C80.5752 38.1299 80.9854 39.4189 81.1221 40.8643H76.7275C76.6787 40.0049 76.5078 39.2773 76.2148 38.6816C75.9219 38.0762 75.4775 37.6221 74.8818 37.3193C74.2959 37.0068 73.5146 36.8506 72.5381 36.8506C71.8057 36.8506 71.166 36.9873 70.6191 37.2607C70.0723 37.5342 69.6133 37.9492 69.2422 38.5059C68.8711 39.0625 68.5928 39.7656 68.4072 40.6152C68.2314 41.4551 68.1436 42.4414 68.1436 43.5742V45.083C68.1436 46.1865 68.2266 47.1582 68.3926 47.998C68.5586 48.8281 68.8125 49.5312 69.1543 50.1074C69.5059 50.6738 69.9551 51.1035 70.502 51.3965C71.0586 51.6797 71.7275 51.8213 72.5088 51.8213C73.4268 51.8213 74.1836 51.6748 74.7793 51.3818C75.375 51.0889 75.8291 50.6543 76.1416 50.0781C76.4639 49.502 76.6543 48.7842 76.7129 47.9248ZM92.6504 37.3193L86.8496 55H82.1768L90.1016 33.6719H93.0752L92.6504 37.3193ZM97.4697 55L91.6543 37.3193L91.1855 33.6719H94.1885L102.157 55H97.4697ZM97.2061 47.0605V50.5029H85.9414V47.0605H97.2061ZM117.846 51.5723V55H107.108V51.5723H117.846ZM108.529 33.6719V55H104.135V33.6719H108.529ZM134.677 51.5723V55H123.324V51.5723H134.677ZM124.76 33.6719V55H120.365V33.6719H124.76ZM133.197 42.3584V45.6982H123.324V42.3584H133.197ZM134.662 33.6719V37.1143H123.324V33.6719H134.662ZM154.599 33.6719V55H150.204L141.635 40.7031V55H137.24V33.6719H141.635L150.219 47.9834V33.6719H154.599ZM164.97 55H160.326L160.355 51.5723H164.97C166.122 51.5723 167.094 51.3135 167.885 50.7959C168.676 50.2686 169.271 49.502 169.672 48.4961C170.082 47.4902 170.287 46.2744 170.287 44.8486V43.8086C170.287 42.7148 170.17 41.7529 169.936 40.9229C169.711 40.0928 169.374 39.3945 168.925 38.8281C168.476 38.2617 167.924 37.8369 167.27 37.5537C166.615 37.2607 165.863 37.1143 165.014 37.1143H160.238V33.6719H165.014C166.439 33.6719 167.743 33.916 168.925 34.4043C170.116 34.8828 171.146 35.5713 172.016 36.4697C172.885 37.3682 173.554 38.4424 174.022 39.6924C174.501 40.9326 174.74 42.3145 174.74 43.8379V44.8486C174.74 46.3623 174.501 47.7441 174.022 48.9941C173.554 50.2441 172.885 51.3184 172.016 52.2168C171.156 53.1055 170.126 53.7939 168.925 54.2822C167.733 54.7607 166.415 55 164.97 55ZM162.816 33.6719V55H158.422V33.6719H162.816ZM186.283 37.3193L180.482 55H175.81L183.734 33.6719H186.708L186.283 37.3193ZM191.103 55L185.287 37.3193L184.818 33.6719H187.821L195.79 55H191.103ZM190.839 47.0605V50.5029H179.574V47.0605H190.839ZM183.808 32.4707L186.679 27.959H191.264L187.235 32.4707H183.808ZM197.768 33.6719H205.722C207.353 33.6719 208.754 33.916 209.926 34.4043C211.107 34.8926 212.016 35.6152 212.65 36.5723C213.285 37.5293 213.603 38.7061 213.603 40.1025C213.603 41.2451 213.407 42.2266 213.017 43.0469C212.636 43.8574 212.094 44.5361 211.391 45.083C210.697 45.6201 209.882 46.0498 208.944 46.3721L207.553 47.1045H200.639L200.609 43.6768H205.751C206.522 43.6768 207.162 43.54 207.67 43.2666C208.178 42.9932 208.559 42.6123 208.812 42.124C209.076 41.6357 209.208 41.0693 209.208 40.4248C209.208 39.7412 209.081 39.1504 208.827 38.6523C208.573 38.1543 208.188 37.7734 207.67 37.5098C207.152 37.2461 206.503 37.1143 205.722 37.1143H202.162V55H197.768V33.6719ZM209.691 55L204.828 45.4932L209.472 45.4639L214.394 54.7949V55H209.691ZM221.659 33.6719V55H217.279V33.6719H221.659ZM243.295 43.8379V44.8486C243.295 46.4697 243.075 47.9248 242.636 49.2139C242.196 50.5029 241.576 51.6016 240.775 52.5098C239.975 53.4082 239.018 54.0967 237.904 54.5752C236.801 55.0537 235.575 55.293 234.228 55.293C232.89 55.293 231.664 55.0537 230.551 54.5752C229.447 54.0967 228.49 53.4082 227.68 52.5098C226.869 51.6016 226.239 50.5029 225.79 49.2139C225.351 47.9248 225.131 46.4697 225.131 44.8486V43.8379C225.131 42.207 225.351 40.752 225.79 39.4727C226.229 38.1836 226.85 37.085 227.65 36.1768C228.461 35.2686 229.418 34.5752 230.521 34.0967C231.635 33.6182 232.86 33.3789 234.198 33.3789C235.546 33.3789 236.771 33.6182 237.875 34.0967C238.988 34.5752 239.945 35.2686 240.746 36.1768C241.557 37.085 242.182 38.1836 242.621 39.4727C243.07 40.752 243.295 42.207 243.295 43.8379ZM238.856 44.8486V43.8086C238.856 42.6758 238.754 41.6797 238.549 40.8203C238.344 39.9609 238.041 39.2383 237.641 38.6523C237.24 38.0664 236.752 37.627 236.176 37.334C235.6 37.0312 234.94 36.8799 234.198 36.8799C233.456 36.8799 232.797 37.0312 232.221 37.334C231.654 37.627 231.171 38.0664 230.771 38.6523C230.38 39.2383 230.082 39.9609 229.877 40.8203C229.672 41.6797 229.569 42.6758 229.569 43.8086V44.8486C229.569 45.9717 229.672 46.9678 229.877 47.8369C230.082 48.6963 230.385 49.4238 230.785 50.0195C231.186 50.6055 231.674 51.0498 232.25 51.3525C232.826 51.6553 233.485 51.8066 234.228 51.8066C234.97 51.8066 235.629 51.6553 236.205 51.3525C236.781 51.0498 237.265 50.6055 237.655 50.0195C238.046 49.4238 238.344 48.6963 238.549 47.8369C238.754 46.9678 238.856 45.9717 238.856 44.8486Z" fill="url(#paint0_linear_122_239)"/>
<defs>
<linearGradient id="paint0_linear_122_239" x1="153.5" y1="26" x2="153.5" y2="64" gradientUnits="userSpaceOnUse">
<stop stop-color="white"/>
<stop offset="1" stop-color="#D9D9D9" stop-opacity="0.8"/>
</linearGradient>
</defs>
</svg>
